<?xml version="1.0" standalone="no"?>
<!DOCTYPE svg PUBLIC "-//W3C//DTD SVG 20010904//EN"
 "http://www.w3.org/TR/2001/REC-SVG-20010904/DTD/svg10.dtd">
<svg version="1.0" xmlns="http://www.w3.org/2000/svg"
 width="1000.000000pt" height="1000.000000pt" viewBox="0 0 1000.000000 1000.000000"
 preserveAspectRatio="xMidYMid meet">

<g transform="translate(0.000000,1000.000000) scale(0.100000,-0.100000)"
fill="#000000" stroke="none">
<path d="M4345 8496 c-36 -36 -39 -63 -20 -188 103 -706 317 -1431 580 -1963
161 -325 305 -534 510 -741 203 -204 287 -260 626 -414 123 -56 289 -135 369
-176 125 -64 139 -73 100 -68 -95 14 -270 19 -387 12 -222 -13 -440 -72 -648
-173 l-109 -54 -32 27 c-203 168 -326 263 -566 433 -572 404 -897 667 -1219
989 -216 216 -296 309 -410 478 -207 308 -299 654 -286 1076 6 203 24 335 69
505 43 165 45 187 17 217 -31 33 -97 34 -126 2 -54 -61 -342 -604 -473 -893
-587 -1294 -608 -2235 -65 -2867 228 -266 612 -481 1055 -592 271 -68 571
-105 859 -107 197 -1 458 -13 467 -22 3 -3 -10 -43 -29 -89 -45 -106 -81 -221
-109 -350 -19 -89 -22 -134 -22 -328 -1 -196 2 -239 22 -338 91 -450 343 -841
712 -1105 114 -81 339 -194 470 -236 364 -118 748 -116 1108 4 606 203 1058
729 1174 1364 26 144 29 447 6 578 -14 78 -13 83 3 88 50 16 121 137 140 238
29 161 -79 363 -231 431 -72 32 -160 50 -214 42 -55 -8 -69 14 -85 133 -66
514 -415 1249 -895 1891 -40 52 -78 105 -86 117 -8 11 -72 90 -141 175 -510
618 -1177 1252 -1932 1836 -131 102 -159 111 -202 68z m277 -332 c21 -16 38
-33 38 -39 0 -23 -85 -244 -91 -237 -7 7 -54 242 -66 327 l-6 50 44 -36 c24
-19 61 -48 81 -65z m338 -288 c0 -6 -51 -154 -112 -329 l-113 -318 -22 72
c-12 40 -34 118 -49 173 l-26 102 77 214 c42 118 79 218 81 222 6 10 164 -121
164 -136z m-2265 7 c-3 -21 -7 -92 -10 -158 l-4 -120 -303 -718 c-167 -394
-304 -713 -306 -708 -6 18 39 246 78 396 67 259 171 549 299 840 64 143 241
505 248 505 2 0 1 -17 -2 -37z m2509 -209 c54 -48 95 -92 93 -98 -220 -646
-333 -964 -338 -959 -8 8 -94 223 -125 309 l-17 50 138 392 c76 216 142 392
146 392 4 0 50 -39 103 -86z m350 -323 l110 -110 -184 -608 c-101 -334 -186
-611 -190 -615 -7 -9 -109 153 -179 283 l-50 94 180 520 c98 286 181 526 184
533 2 6 8 12 12 12 5 0 57 -49 117 -109z m-2809 -187 c13 -55 40 -144 60 -199
l36 -100 -348 -812 c-345 -804 -348 -812 -362 -780 -24 57 -59 211 -72 314
l-12 101 333 791 c183 435 335 789 337 787 2 -2 14 -48 28 -102z m3207 -216
l109 -117 -188 -626 c-103 -344 -191 -625 -194 -625 -11 0 -185 167 -228 219
l-41 49 190 627 c105 344 190 629 190 633 0 9 44 -34 162 -160z m368 -419 c69
-83 126 -155 128 -160 2 -4 -61 -242 -140 -529 -108 -393 -147 -520 -158 -520
-24 1 -324 154 -323 165 3 24 358 1195 363 1195 3 0 61 -68 130 -151z m-3333
69 c25 -40 73 -108 105 -151 37 -48 58 -85 55 -95 -7 -25 -687 -1586 -694
-1592 -9 -8 -120 119 -173 199 -47 71 -48 75 -36 105 108 258 689 1606 692
1606 2 0 25 -33 51 -72z m421 -509 l133 -137 -337 -748 c-186 -412 -338 -750
-340 -752 -5 -7 -232 139 -277 178 -5 4 142 353 326 776 357 819 360 825 361
822 1 -2 61 -64 134 -139z m3255 -6 c46 -65 100 -143 120 -173 l36 -55 -97
-378 c-54 -208 -102 -377 -107 -377 -29 5 -305 145 -302 154 2 6 62 221 133
479 70 257 129 467 130 467 2 0 41 -53 87 -117z m-2760 -443 c31 -25 56 -49
57 -54 0 -5 -130 -296 -290 -646 -159 -351 -290 -648 -290 -660 0 -20 -3 -22
-37 -15 -45 8 -221 66 -286 94 l-47 20 14 33 c28 66 619 1374 632 1401 l15 27
87 -77 c49 -43 114 -98 145 -123z m3112 -110 c29 -52 65 -121 81 -152 l27 -57
-57 -213 c-32 -117 -60 -215 -62 -217 -2 -2 -55 25 -119 60 -89 49 -115 68
-112 81 3 9 40 155 83 323 68 264 81 303 92 288 7 -10 37 -61 67 -113z m-2748
-176 c93 -69 169 -129 171 -134 2 -4 -108 -236 -243 -514 -135 -279 -245 -514
-245 -523 0 -14 -11 -15 -87 -9 -87 6 -331 41 -338 48 -4 4 565 1258 571 1258
2 0 79 -57 171 -126z m494 -355 c87 -62 159 -116 159 -121 0 -4 -81 -170 -180
-368 l-180 -359 -222 6 c-123 3 -224 6 -224 7 -1 0 102 216 230 478 160 332
235 476 244 473 8 -3 85 -55 173 -116z m2483 64 c55 -142 108 -292 124 -350
l20 -71 -117 76 c-64 41 -118 77 -120 78 -6 5 72 284 80 284 4 0 10 -8 13 -17z
m-732 -282 c148 -26 305 -78 447 -147 l113 -57 -6 -36 c-61 -351 -70 -658 -27
-913 41 -239 116 -409 236 -536 82 -87 153 -134 262 -172 l75 -26 -67 -35
c-306 -156 -437 -490 -359 -915 5 -30 2 -34 -63 -77 -75 -50 -195 -111 -294
-151 -130 -53 -365 -106 -469 -106 l-45 0 110 58 c280 147 458 286 501 388 41
98 0 196 -103 248 -51 26 -171 54 -278 66 -55 6 -181 25 -280 41 -680 115
-1192 299 -1479 529 -100 81 -136 131 -136 188 l0 44 63 -57 c298 -271 859
-453 1285 -416 461 40 763 284 874 706 30 113 36 289 14 389 -71 316 -362 521
-861 606 -66 11 -168 23 -228 27 l-107 6 -97 92 -98 92 40 20 c126 64 316 124
470 148 128 21 373 18 507 -4z m-1362 -80 c36 -29 66 -57 68 -61 2 -4 -26 -30
-61 -58 -141 -111 -275 -253 -362 -384 -32 -50 -55 -71 -55 -53 0 3 71 146
157 319 135 271 159 313 173 303 8 -6 44 -36 80 -66z m334 -295 c129 -120 293
-289 347 -357 l32 -40 -34 6 c-98 17 -404 57 -626 82 -139 15 -253 31 -253 35
0 13 119 153 182 214 80 78 199 174 216 174 7 0 68 -52 136 -114z m1902 -83
c264 -265 423 -612 455 -991 7 -78 9 -170 5 -214 l-8 -78 -66 0 c-255 1 -439
150 -530 430 -56 171 -79 410 -63 655 10 149 27 302 37 333 5 18 65 -29 170
-135z m-1381 -83 c303 -49 531 -157 640 -302 62 -83 86 -154 92 -268 17 -326
-169 -629 -457 -743 -142 -56 -181 -62 -390 -62 -162 0 -214 4 -306 23 -362
73 -705 247 -847 431 -77 100 -75 96 -60 186 17 99 80 289 128 386 20 40 37
75 39 77 8 7 664 -64 773 -84 l33 -6 -45 -50 c-139 -155 -120 -405 43 -555 15
-13 56 -39 92 -56 61 -30 72 -32 170 -32 92 0 112 4 160 26 162 76 261 260
230 427 -15 84 -63 174 -119 224 -26 24 -55 57 -64 74 -20 39 -140 194 -206
267 -29 31 -47 57 -40 57 8 0 68 -9 134 -20z m1833 -156 c82 -41 135 -131 134
-228 0 -57 -35 -145 -46 -116 -40 112 -61 161 -107 250 -30 58 -55 108 -57
113 -7 14 25 7 76 -19z m-1833 -293 c146 -68 183 -262 72 -380 -72 -76 -182
-93 -278 -43 -127 65 -166 220 -86 339 62 92 193 130 292 84z m-1045 -1155
c128 -67 337 -152 508 -205 258 -81 652 -168 937 -206 230 -30 270 -37 323
-57 36 -13 52 -25 52 -37 0 -29 -97 -118 -210 -193 -104 -69 -571 -308 -602
-308 -9 0 -60 11 -114 25 -201 53 -394 144 -554 263 -72 53 -280 248 -280 263
0 4 34 -6 76 -23 202 -78 603 -172 937 -219 l158 -22 27 20 c20 15 28 30 30
60 5 61 -20 75 -164 96 -478 71 -840 165 -1079 282 -130 63 -177 100 -209 164
-27 52 -86 216 -86 237 0 8 27 -5 73 -35 39 -27 119 -74 177 -105z m2814 92
c-26 -88 -93 -238 -150 -336 -80 -136 -272 -367 -290 -350 -13 14 -5 264 10
323 52 192 177 323 379 395 28 10 55 19 59 19 4 1 0 -23 -8 -51z"/>
<path d="M4200 195 c0 -8 5 -15 10 -15 6 0 10 7 10 15 0 8 -4 15 -10 15 -5 0
-10 -7 -10 -15z"/>
<path d="M4290 206 c0 -3 5 -17 12 -31 8 -18 14 -22 20 -13 4 7 7 20 7 28 0
10 -3 8 -9 -5 -7 -16 -9 -17 -9 -3 -1 15 -21 38 -21 24z"/>
<path d="M4351 194 c0 -11 3 -14 6 -6 3 7 2 16 -1 19 -3 4 -6 -2 -5 -13z"/>
<path d="M4386 190 c3 -14 10 -29 15 -34 14 -16 10 6 -7 34 l-15 25 7 -25z"/>
<path d="M4411 194 c0 -11 3 -14 6 -6 3 7 2 16 -1 19 -3 4 -6 -2 -5 -13z"/>
<path d="M4474 180 c1 -24 36 -44 36 -21 0 6 -6 8 -14 5 -10 -4 -16 3 -19 18
-4 22 -4 21 -3 -2z"/>
<path d="M4580 206 c0 -9 30 -14 35 -6 4 6 -3 10 -14 10 -12 0 -21 -2 -21 -4z"/>
<path d="M4641 178 c2 -30 2 -31 6 -5 2 15 9 27 15 27 5 0 8 -6 5 -14 -3 -8 2
-20 11 -28 13 -11 14 -11 7 2 -5 8 -10 22 -10 30 0 8 -8 16 -17 18 -15 3 -18
-3 -17 -30z"/>
<path d="M4731 190 c14 -31 19 -36 19 -24 0 6 -7 19 -16 30 -14 18 -14 18 -3
-6z"/>
<path d="M4775 199 c-4 -6 -4 -13 -1 -16 3 -4 6 -1 6 5 0 6 8 13 18 15 15 4
15 5 0 6 -9 0 -20 -4 -23 -10z"/>
<path d="M4840 206 c0 -2 9 -6 20 -9 11 -3 18 -1 14 4 -5 9 -34 13 -34 5z"/>
<path d="M4965 200 c-4 -6 -4 -14 -1 -17 3 -4 6 -1 6 5 0 7 7 12 15 12 9 0 15
-9 15 -21 0 -17 -5 -20 -21 -16 -16 4 -19 3 -11 -5 17 -17 44 -1 40 24 -3 25
-32 36 -43 18z"/>
<path d="M5031 178 c2 -30 2 -31 6 -5 2 15 9 27 15 27 5 0 8 -6 5 -14 -3 -8 2
-20 11 -28 13 -11 14 -11 7 2 -5 8 -10 22 -10 30 0 8 -8 16 -17 18 -15 3 -18
-3 -17 -30z"/>
<path d="M5095 180 c0 -16 3 -30 8 -30 4 0 7 14 7 30 0 17 -3 30 -7 30 -5 0
-8 -13 -8 -30z"/>
<path d="M5140 207 c0 -5 9 -20 19 -34 18 -22 20 -22 18 -4 -1 11 -3 18 -6 16
-2 -3 -10 3 -17 13 -7 9 -14 13 -14 9z"/>
<path d="M5209 193 c-12 -16 -12 -17 1 -7 8 6 22 14 30 17 13 5 12 6 -1 6 -9
1 -23 -7 -30 -16z"/>
<path d="M5280 206 c0 -2 9 -6 20 -9 11 -3 18 -1 14 4 -5 9 -34 13 -34 5z"/>
<path d="M5340 191 c-13 -25 -13 -31 2 -31 6 0 8 3 5 6 -3 4 -2 15 4 25 5 11
7 19 5 19 -3 0 -10 -9 -16 -19z"/>
<path d="M5406 201 c-4 -5 3 -7 14 -4 23 6 26 13 6 13 -8 0 -17 -4 -20 -9z"/>
<path d="M5470 190 c0 -14 5 -18 16 -13 11 4 12 8 4 13 -9 6 -9 9 1 13 10 4 9
6 -3 6 -12 1 -18 -6 -18 -19z"/>
<path d="M5538 203 c6 -2 18 -2 25 0 6 3 1 5 -13 5 -14 0 -19 -2 -12 -5z"/>
<path d="M5629 193 c-12 -16 -12 -17 1 -7 8 6 22 14 30 17 13 5 12 6 -1 6 -9
1 -23 -7 -30 -16z"/>
<path d="M5694 195 c-13 -32 23 -63 40 -36 4 5 -3 7 -14 4 -16 -4 -20 0 -20
17 0 17 4 21 20 17 11 -3 18 -1 14 4 -8 14 -34 11 -40 -6z"/>
<path d="M5760 178 c0 -36 4 -35 14 5 4 16 2 27 -4 27 -5 0 -10 -14 -10 -32z"/>
<path d="M5792 190 c-7 -11 -9 -20 -4 -20 4 0 13 9 20 20 7 11 9 20 4 20 -4 0
-13 -9 -20 -20z"/>
<path d="M4180 178 c0 -9 5 -20 10 -23 13 -8 13 5 0 25 -8 13 -10 13 -10 -2z"/>
<path d="M4226 174 c-4 -9 -4 -19 -1 -22 2 -3 7 3 11 12 4 9 4 19 1 22 -2 3
-7 -3 -11 -12z"/>
<path d="M4707 171 c-4 -17 -3 -21 5 -13 5 5 8 16 6 23 -3 8 -7 3 -11 -10z"/>
<path d="M5280 180 c0 -5 5 -10 11 -10 5 0 7 5 4 10 -3 6 -8 10 -11 10 -2 0
-4 -4 -4 -10z"/>
<path d="M5360 176 c0 -8 4 -17 9 -20 5 -4 7 3 4 14 -6 23 -13 26 -13 6z"/>
<path d="M4270 166 c0 -9 5 -16 10 -16 6 0 10 4 10 9 0 6 -4 13 -10 16 -5 3
-10 -1 -10 -9z"/>
<path d="M4367 173 c-4 -3 -7 -11 -7 -17 0 -6 5 -5 12 2 6 6 9 14 7 17 -3 3
-9 2 -12 -2z"/>
<path d="M4860 164 c-17 -9 -20 -14 -9 -14 9 0 22 7 29 15 15 18 13 18 -20 -1z"/>
<path d="M5246 168 c5 -8 0 -9 -16 -5 -16 4 -20 3 -12 -5 6 -6 18 -8 26 -5 18
7 22 27 5 27 -5 0 -7 -5 -3 -12z"/>
<path d="M5436 168 c5 -8 0 -9 -16 -5 -16 4 -20 3 -12 -5 6 -6 18 -8 26 -5 18
7 22 27 5 27 -5 0 -7 -5 -3 -12z"/>
<path d="M5555 171 c3 -5 -2 -12 -10 -14 -12 -4 -12 -5 1 -3 19 1 32 26 14 26
-6 0 -9 -4 -5 -9z"/>
<path d="M4540 160 c0 -6 7 -10 15 -10 8 0 15 2 15 4 0 2 -7 6 -15 10 -8 3
-15 1 -15 -4z"/>
<path d="M4778 158 c5 -5 16 -8 23 -6 8 3 3 7 -10 11 -17 4 -21 3 -13 -5z"/>
<path d="M5638 158 c5 -5 16 -8 23 -6 8 3 3 7 -10 11 -17 4 -21 3 -13 -5z"/>
<path d="M4918 153 c7 -3 16 -2 19 1 4 3 -2 6 -13 5 -11 0 -14 -3 -6 -6z"/>
<path d="M5478 153 c7 -3 16 -2 19 1 4 3 -2 6 -13 5 -11 0 -14 -3 -6 -6z"/>
</g>
</svg>
