<?xml version="1.0" standalone="no"?>
<!DOCTYPE svg PUBLIC "-//W3C//DTD SVG 20010904//EN"
 "http://www.w3.org/TR/2001/REC-SVG-20010904/DTD/svg10.dtd">
<svg version="1.0" xmlns="http://www.w3.org/2000/svg"
 width="50.000000pt" height="50.000000pt" viewBox="0 0 50.000000 50.000000"
 preserveAspectRatio="xMidYMid meet">

<g transform="translate(0.000000,50.000000) scale(0.100000,-0.100000)"
fill="#000000" stroke="none">
<path d="M60 324 c0 -114 3 -173 10 -169 6 4 10 70 10 166 l0 159 170 0 170 0
0 -105 c0 -95 -2 -105 -18 -105 -10 0 -29 12 -43 26 -37 40 -73 54 -139 54
l-60 0 -27 -54 c-28 -57 -26 -86 6 -86 14 0 27 13 41 40 11 22 25 40 30 40 6
0 3 -15 -6 -32 -10 -18 -23 -51 -29 -73 -11 -37 -15 -40 -51 -43 -45 -4 -64
-17 -64 -43 0 -17 8 -19 75 -19 57 0 76 4 83 16 7 12 17 5 56 -40 33 -39 55
-56 72 -56 13 0 24 5 24 11 0 6 -22 48 -49 94 l-49 83 21 31 20 32 21 -20 c13
-12 36 -21 54 -21 l32 0 0 -105 c0 -63 4 -105 10 -105 6 0 10 90 10 250 l0
250 -190 0 -190 0 0 -176z m274 -34 c24 -22 53 -40 65 -40 11 0 21 -4 21 -10
0 -20 -57 -10 -80 15 -27 29 -28 28 -64 -24 l-28 -40 47 -82 c25 -44 44 -83
42 -86 -6 -6 -131 143 -135 161 -1 7 6 34 18 60 26 62 25 66 -8 66 -24 0 -32
-7 -47 -40 -10 -22 -22 -40 -27 -40 -12 0 -11 4 14 55 l22 45 58 0 c54 0 62
-3 102 -40z m-129 -166 c0 -16 -9 -19 -63 -22 -43 -2 -62 0 -57 7 3 6 26 11
51 11 33 0 44 4 44 16 0 9 6 14 13 12 6 -3 12 -13 12 -24z"/>
<path d="M287 442 c-33 -36 -8 -92 40 -92 25 0 53 30 53 57 0 46 -62 69 -93
35z m67 -24 c8 -14 7 -21 -6 -34 -30 -30 -75 9 -48 42 16 18 39 15 54 -8z"/>
<path d="M60 30 c0 -17 5 -30 10 -30 6 0 10 13 10 30 0 17 -4 30 -10 30 -5 0
-10 -13 -10 -30z"/>
</g>
</svg>
